<svg height="288" width="288" xmlns="http://www.w3.org/2000/svg"><svg height="288" viewBox="0 0 1024 1024" width="288" xmlns="http://www.w3.org/2000/svg"><path d="m1024 512c0-282.76984-229.23022-512-512-512s-512 229.23016-512 512c0 255.554 187.231 467.37012 432 505.77777v-357.77777h-130v-148h130v-112.8c0-128.32018 76.43854-199.2 193.38922-199.2 56.01843 0 114.61078 10 114.61078 10v126h-64.56287c-63.60205 0-83.43713 39.46667-83.43713 79.95728v96.04272h142l-22.7 148h-119.3v357.77777c244.769-38.40765 432-250.22377 432-505.77777z" fill="#e9b500"/><path d="m711.3 660 22.7-148h-142v-96.04272c0-40.49061 19.83508-79.95728 83.43713-79.95728h64.56287v-126s-58.59235-10-114.61078-10c-116.95068 0-193.38922 70.87982-193.38922 199.2v112.8h-130v148h130v357.77777a517.39619 517.39619 0 0 0 160 0v-357.77777z" fill="#fff"/></svg></svg>