<svg width="18" height="17" viewBox="0 0 18 17" fill="none" xmlns="http://www.w3.org/2000/svg">
<path d="M8.84391 5.42412C7.47658 5.42412 6.36073 6.53997 6.36073 7.9073C6.36073 9.27463 7.47658 10.3905 8.84391 10.3905C10.2112 10.3905 11.3271 9.27463 11.3271 7.9073C11.3271 6.53997 10.2112 5.42412 8.84391 5.42412ZM16.2916 7.9073C16.2916 6.879 16.3009 5.86003 16.2431 4.8336C16.1854 3.64137 15.9134 2.58328 15.0416 1.71146C14.1679 0.837787 13.1117 0.567674 11.9195 0.509926C10.8912 0.452177 9.8722 0.461492 8.84577 0.461492C7.81748 0.461492 6.7985 0.452177 5.77207 0.509926C4.57985 0.567674 3.52175 0.83965 2.64994 1.71146C1.77626 2.58514 1.50615 3.64137 1.4484 4.8336C1.39065 5.86189 1.39997 6.88087 1.39997 7.9073C1.39997 8.93373 1.39065 9.95457 1.4484 10.981C1.50615 12.1732 1.77813 13.2313 2.64994 14.1031C3.52362 14.9768 4.57985 15.2469 5.77207 15.3047C6.80037 15.3624 7.81934 15.3531 8.84577 15.3531C9.87406 15.3531 10.893 15.3624 11.9195 15.3047C13.1117 15.2469 14.1698 14.9749 15.0416 14.1031C15.9153 13.2295 16.1854 12.1732 16.2431 10.981C16.3028 9.95457 16.2916 8.93559 16.2916 7.9073ZM8.84391 11.728C6.72958 11.728 5.02321 10.0216 5.02321 7.9073C5.02321 5.79296 6.72958 4.08659 8.84391 4.08659C10.9582 4.08659 12.6646 5.79296 12.6646 7.9073C12.6646 10.0216 10.9582 11.728 8.84391 11.728ZM12.8211 4.82242C12.3274 4.82242 11.9288 4.42377 11.9288 3.93011C11.9288 3.43646 12.3274 3.03781 12.8211 3.03781C13.3147 3.03781 13.7134 3.43646 13.7134 3.93011C13.7135 4.04734 13.6906 4.16343 13.6458 4.27176C13.601 4.38008 13.5353 4.47851 13.4524 4.5614C13.3695 4.64428 13.2711 4.71001 13.1627 4.7548C13.0544 4.79959 12.9383 4.82257 12.8211 4.82242Z" fill="#E9B500"/>
</svg>
