<svg width="20" height="14" viewBox="0 0 20 14" fill="none" xmlns="http://www.w3.org/2000/svg">
<path fill-rule="evenodd" clip-rule="evenodd" d="M0.851233 6.27456L6.47163 0.823972C6.81457 0.491512 7.37068 0.491512 7.71362 0.823972C8.05664 1.15685 8.05664 1.69597 7.71362 2.02843L3.59237 6.02511H18.6028C19.0878 6.02511 19.481 6.40627 19.481 6.8768C19.481 7.34689 19.0878 7.72847 18.6028 7.72847H3.59237L7.71353 11.7251C8.05645 12.0572 8.05645 12.5967 7.71353 12.9292C7.54198 13.0952 7.31723 13.1782 7.09249 13.1782C6.86776 13.1782 6.64301 13.0952 6.47155 12.9292L0.851233 7.4786C0.50821 7.14658 0.50821 6.60702 0.851233 6.27456Z" fill="#BBC7D7"/>
</svg>
