<svg width="31" height="14" viewBox="0 0 31 14" fill="none" xmlns="http://www.w3.org/2000/svg">
<path fill-rule="evenodd" clip-rule="evenodd" d="M30.7426 6.27415L25.1222 0.823564C24.7793 0.491104 24.223 0.491104 23.8802 0.823564C23.5372 1.15644 23.5372 1.69557 23.8802 2.02803L28.0015 6.0247H1.17501C0.690086 6.0247 0.296875 6.40586 0.296875 6.87639C0.296875 7.34649 0.690086 7.72807 1.17501 7.72807H28.0015L23.8803 11.7247C23.5373 12.0568 23.5373 12.5963 23.8803 12.9288C24.0517 13.0948 24.2766 13.1778 24.5013 13.1778C24.7261 13.1778 24.9508 13.0948 25.1223 12.9288L30.7426 7.47819C31.0856 7.14617 31.0856 6.60661 30.7426 6.27415Z" fill="#184D47"/>
</svg>
