<svg fill="none" height="14" viewBox="0 0 20 14" width="20" xmlns="http://www.w3.org/2000/svg"><path clip-rule="evenodd" d="m.851233 6.27456 5.620397-5.450588c.34294-.33246.89905-.33246 1.24199 0 .34302.332878.34302.871998 0 1.204458l-4.12125 3.99668h15.01043c.485 0 .8782.38116.8782.85169 0 .47009-.3932.85167-.8782.85167h-15.01043l4.12116 3.99663c.34292.3321.34292.8716 0 1.2041-.17155.166-.3963.249-.62104.249-.22473 0-.44948-.083-.62094-.249l-5.620317-5.4506c-.343023-.33202-.343023-.87158 0-1.20404z" fill="#bbc7d7" fill-rule="evenodd"/></svg>