<svg width="17" height="17" viewBox="0 0 17 17" fill="none" xmlns="http://www.w3.org/2000/svg">
<g clip-path="url(#clip0_109_213)">
<path d="M16.5998 2.61138C15.9555 2.89688 15.2633 3.08979 14.5357 3.17699C15.2865 2.72774 15.8482 2.02067 16.116 1.18772C15.4106 1.60671 14.6386 1.90163 13.8335 2.05966C13.2921 1.4816 12.575 1.09846 11.7935 0.96971C11.0121 0.840962 10.21 0.973814 9.51176 1.34764C8.81354 1.72147 8.25827 2.31535 7.93216 3.03709C7.60605 3.75883 7.52735 4.56805 7.70827 5.3391C6.27896 5.26734 4.88072 4.89584 3.60428 4.24871C2.32784 3.60158 1.20174 2.6933 0.299052 1.58279C-0.00960058 2.11522 -0.187076 2.73253 -0.187076 3.38996C-0.18742 3.9818 -0.0416752 4.56457 0.237228 5.08657C0.516132 5.60857 0.91957 6.05366 1.41175 6.38235C0.840952 6.36419 0.28275 6.20995 -0.216398 5.93249V5.97878C-0.216456 6.80886 0.0706745 7.61339 0.596272 8.25587C1.12187 8.89835 1.85356 9.33919 2.66719 9.5036C2.13769 9.64691 1.58254 9.66802 1.04368 9.56533C1.27324 10.2796 1.7204 10.9041 2.32256 11.3516C2.92472 11.7991 3.65173 12.047 4.40182 12.0608C3.1285 13.0604 1.55595 13.6026 -0.0628431 13.6002C-0.349596 13.6003 -0.636107 13.5835 -0.920898 13.55C0.722274 14.6065 2.63505 15.1672 4.58856 15.1651C11.2014 15.1651 14.8165 9.68802 14.8165 4.93785C14.8165 4.78353 14.8127 4.62766 14.8057 4.47333C15.5089 3.9648 16.1159 3.33509 16.5982 2.61369L16.5998 2.61138V2.61138Z" fill="#E9B500"/>
</g>
<defs>
<clipPath id="clip0_109_213">
<rect width="16.1226" height="16.1226" fill="white"/>
</clipPath>
</defs>
</svg>
