<svg xmlns="http://www.w3.org/2000/svg" enable-background="new 0 0 100 100" viewBox="0 0 100 100"><path d="M52.572,86.972H50c-3.778-0.007-7.427-0.586-10.864-1.652C45.536,82.411,50,75.962,50,68.486C50,58.293,41.707,50,31.514,50
	c-7.477,0-13.925,4.464-16.835,10.864c-1.066-3.437-1.645-7.085-1.651-10.864c0-10.706,4.633-20.803,12.581-27.784l-0.784,3.919
	c-0.085,0.437,0,0.892,0.252,1.261c0.252,0.387,0.622,0.639,1.058,0.722c0.118,0.018,0.236,0.035,0.337,0.035
	c0.807,0,1.495-0.572,1.647-1.344l1.63-8.152c0.027-0.082,0.053-0.164,0.066-0.251c0.071-0.381,0.015-0.747-0.161-1.074
	c-0.008-0.014-0.017-0.028-0.025-0.042c-0.028-0.048-0.05-0.098-0.084-0.145c-0.015-0.023-0.036-0.041-0.053-0.063
	c-0.018-0.023-0.029-0.049-0.047-0.072c-0.026-0.032-0.058-0.056-0.086-0.086c-0.013-0.014-0.027-0.027-0.04-0.041
	c-0.312-0.317-0.724-0.495-1.168-0.495H19.75c-0.925,0-1.681,0.757-1.681,1.68c0,0.924,0.756,1.681,1.681,1.681h3.567
	C14.686,27.36,9.667,38.352,9.667,50c0,5.825,1.252,11.361,3.486,16.368c-0.08,0.696-0.125,1.402-0.125,2.118
	c0,10.193,8.293,18.486,18.486,18.486c0.717,0,1.423-0.045,2.118-0.125c5.007,2.234,10.543,3.486,16.368,3.486h2.572
	c0.924,0,1.662-0.757,1.662-1.681C54.234,87.728,53.496,86.972,52.572,86.972z M17.239,73.478c-0.548-1.564-0.85-3.243-0.85-4.992
	c0-0.906,0.085-1.791,0.238-2.654c1.259-7.078,7.453-12.471,14.887-12.471c8.34,0,15.125,6.784,15.125,15.125
	c0,7.434-5.393,13.629-12.471,14.887c-0.862,0.153-1.748,0.238-2.654,0.238c-1.749,0-3.428-0.302-4.992-0.851
	C22.192,81.242,18.758,77.807,17.239,73.478z M60.956,88.652c0,0.924-0.738,1.681-1.662,1.681c-0.942,0-1.699-0.757-1.699-1.681
	c0-0.924,0.757-1.68,1.699-1.68C60.218,86.972,60.956,87.728,60.956,88.652z M39.025,11.347c0-0.924,0.757-1.68,1.681-1.68
	c0.924,0,1.68,0.756,1.68,1.68s-0.756,1.681-1.68,1.681C39.782,13.028,39.025,12.271,39.025,11.347z M80.25,80.249h-3.578
	C85.305,72.642,90.333,61.657,90.333,50c0-5.826-1.252-11.361-3.486-16.368c0.08-0.696,0.125-1.401,0.125-2.118
	c0-10.193-8.293-18.486-18.486-18.486c-0.717,0-1.423,0.045-2.119,0.125C61.361,10.919,55.825,9.667,50,9.667h-2.572
	c-0.924,0-1.681,0.756-1.681,1.68s0.757,1.681,1.681,1.681H50c3.778,0.006,7.427,0.585,10.864,1.651
	C54.464,17.588,50,24.037,50,31.514C50,41.707,58.293,50,68.486,50c7.476,0,13.925-4.464,16.834-10.864
	c1.066,3.437,1.645,7.085,1.652,10.864c0,10.574-4.523,20.553-12.292,27.524l0.477-1.912c0.102-0.438,0.035-0.891-0.202-1.278
	c-0.218-0.37-0.587-0.639-1.024-0.755c-0.891-0.22-1.815,0.334-2.033,1.226l-1.6,6.401c-0.057,0.124-0.105,0.253-0.131,0.388
	c-0.067,0.437,0.017,0.892,0.27,1.261c0.011,0.016,0.028,0.028,0.039,0.044c0.016,0.024,0.026,0.051,0.045,0.074
	c0.318,0.385,0.806,0.638,1.328,0.638h8.403c0.923,0,1.68-0.757,1.68-1.681C81.93,81.006,81.173,80.249,80.25,80.249z
	 M83.611,31.514c0,0.906-0.085,1.791-0.238,2.654c-1.258,7.078-7.452,12.471-14.887,12.471c-8.341,0-15.125-6.785-15.125-15.125
	c0-7.435,5.393-13.629,12.472-14.887c0.862-0.153,1.747-0.238,2.653-0.238c1.749,0,3.428,0.302,4.992,0.85
	c4.33,1.519,7.764,4.953,9.282,9.282C83.309,28.086,83.611,29.764,83.611,31.514z M32.379,80.01l8.403-5.042
	c0.452-0.271,0.751-0.738,0.807-1.263l0.934-8.777c0.064-0.615-0.215-1.217-0.727-1.567l-9.336-6.348
	c-0.668-0.455-1.563-0.366-2.134,0.202L20.242,67.298c-0.656,0.657-0.656,1.72,0,2.377l10.083,10.083
	c0.325,0.325,0.755,0.492,1.189,0.492C31.811,80.249,32.11,80.171,32.379,80.01z M37.457,64.476l-4.659,2.33h-7.311l6.232-6.231
	L37.457,64.476z M33.194,70.166c0.261,0,0.519-0.061,0.752-0.177l4.919-2.46l-0.531,4.987l-6.56,3.938l-6.287-6.288H33.194z
	 M65.965,28.153c0,0.927,0.754,1.68,1.681,1.68h1.68c2.78,0,5.042,2.262,5.042,5.042c0,2.493-1.82,4.564-4.201,4.965v1.757
	c0,0.929-0.751,1.68-1.68,1.68c-0.929,0-1.681-0.751-1.681-1.68v-1.681h-2.521c-0.929,0-1.681-0.751-1.681-1.68
	c0-0.929,0.752-1.681,1.681-1.681h4.201h0.84c0.927,0,1.681-0.753,1.681-1.68s-0.754-1.681-1.681-1.681h-1.68
	c-2.78,0-5.042-2.262-5.042-5.041c0-2.493,1.821-4.564,4.201-4.966v-1.756c0-0.929,0.752-1.681,1.681-1.681
	c0.929,0,1.68,0.752,1.68,1.681v1.68h2.521c0.928,0,1.68,0.752,1.68,1.681c0,0.929-0.752,1.68-1.68,1.68h-4.201h-0.84
	C66.718,26.472,65.965,27.226,65.965,28.153z" fill="#e9b500" class="color000000 svgShape"></path></svg>