<svg xmlns="http://www.w3.org/2000/svg" viewBox="0 0 32 32"><path d="M 15.998047 2 C 15.72322 2 15.612462 2.1027062 15.478516 2.1914062 C 15.34457 2.2804063 15.212677 2.3871188 15.070312 2.5117188 C 14.785587 2.7611188 14.466075 3.0779313 14.150391 3.3945312 C 13.834706 3.7110313 13.523277 4.0271719 13.271484 4.2636719 C 13.145588 4.3819719 13.033614 4.4798688 12.953125 4.5429688 C 12.926729 4.563629 12.908619 4.5707257 12.888672 4.5820312 C 12.867788 4.5818102 12.852957 4.5840133 12.824219 4.578125 C 12.726609 4.563125 12.585529 4.5331875 12.421875 4.4921875 C 12.094567 4.4111875 11.67482 4.2892219 11.253906 4.1699219 C 10.832992 4.0506219 10.411753 3.9337219 10.048828 3.8574219 C 9.8673658 3.8194219 9.7011929 3.79225 9.5429688 3.78125 C 9.3847444 3.77025 9.238552 3.7359531 8.9980469 3.8769531 C 8.760655 4.0154531 8.7161843 4.1569812 8.6445312 4.3007812 C 8.5728783 4.4445813 8.5101768 4.6041031 8.4492188 4.7832031 C 8.3273024 5.1415031 8.2108057 5.5758125 8.0957031 6.0078125 C 7.9806006 6.4399125 7.8673692 6.8704719 7.7675781 7.2011719 C 7.7176831 7.3665719 7.6709591 7.5066625 7.6328125 7.6015625 C 7.6202894 7.6327495 7.6091718 7.6480715 7.5976562 7.6679688 C 7.5792277 7.6786493 7.5668095 7.6883598 7.5390625 7.6992188 C 7.4470735 7.7352188 7.308488 7.7791719 7.1464844 7.8261719 C 6.8224771 7.9191719 6.4007503 8.0237594 5.9765625 8.1308594 C 5.5523747 8.2379594 5.1278349 8.3474906 4.7753906 8.4628906 C 4.5991685 8.5208906 4.4413484 8.5788375 4.2988281 8.6484375 C 4.1563078 8.7184375 4.0131415 8.7601531 3.875 9.0019531 C 3.7386316 9.2405531 3.7694586 9.386575 3.7792969 9.546875 C 3.7891369 9.707175 3.8167346 9.8769 3.8535156 10.0625 C 3.9270766 10.4338 4.0418823 10.867128 4.1582031 11.298828 C 4.2745239 11.730428 4.3917531 12.159794 4.4707031 12.496094 C 4.5101781 12.664294 4.5402715 12.808856 4.5546875 12.910156 C 4.5593287 12.942738 4.5569295 12.961667 4.5566406 12.984375 C 4.5461521 13.002846 4.5400946 13.0178 4.5214844 13.041016 C 4.4597584 13.118016 4.3630401 13.226156 4.2460938 13.347656 C 4.012201 13.590556 3.6985678 13.890512 3.3847656 14.195312 C 3.0709635 14.500213 2.7572924 14.807784 2.5097656 15.083984 C 2.3860022 15.222084 2.2780802 15.350822 2.1894531 15.482422 C 2.1008261 15.613922 1.9987588 15.725506 2 16.003906 C 2.00122 16.278806 2.1007605 16.387584 2.1894531 16.521484 C 2.2781461 16.655484 2.3870557 16.789241 2.5117188 16.931641 C 2.7610447 17.216341 3.0760021 17.534009 3.3925781 17.849609 C 3.7091541 18.165309 4.0271341 18.476716 4.2636719 18.728516 C 4.3819408 18.854416 4.4798504 18.966375 4.5429688 19.046875 C 4.563029 19.072618 4.5707612 19.089643 4.5820312 19.109375 C 4.5820862 19.130816 4.5846581 19.14796 4.5800781 19.177734 C 4.5651561 19.275734 4.5346926 19.416478 4.4941406 19.580078 C 4.4130356 19.907378 4.2912077 20.325194 4.171875 20.746094 C 4.0525423 21.166994 3.9356585 21.590125 3.859375 21.953125 C 3.821233 22.134525 3.792235 22.298731 3.78125 22.457031 C 3.770265 22.615231 3.7366921 22.761453 3.8769531 23.001953 C 4.0154323 23.239353 4.1569995 23.285722 4.3007812 23.357422 C 4.4445631 23.429422 4.6040604 23.489881 4.7832031 23.550781 C 5.1414886 23.672681 5.5738543 23.79115 6.0058594 23.90625 C 6.4378645 24.02135 6.868474 24.132622 7.1992188 24.232422 C 7.364591 24.282422 7.5066549 24.329487 7.6015625 24.367188 C 7.6317654 24.37928 7.6465604 24.390684 7.6660156 24.402344 C 7.6766168 24.4205 7.686442 24.433187 7.6972656 24.460938 C 7.7331486 24.552938 7.7775106 24.691516 7.8242188 24.853516 C 7.9176338 25.177616 8.0217938 25.599237 8.1289062 26.023438 C 8.2360187 26.447637 8.3455364 26.874063 8.4609375 27.226562 C 8.5186375 27.402763 8.5768813 27.560525 8.6464844 27.703125 C 8.7160874 27.845625 8.7601662 27.988853 9.0019531 28.126953 C 9.2405623 28.263353 9.3865225 28.230303 9.546875 28.220703 C 9.7072275 28.210703 9.8749227 28.184437 10.060547 28.148438 C 10.431795 28.074437 10.865195 27.96005 11.296875 27.84375 C 11.728555 27.72745 12.157812 27.608297 12.494141 27.529297 C 12.662305 27.490297 12.808891 27.461266 12.910156 27.447266 C 12.944473 27.442521 12.965229 27.444909 12.988281 27.445312 C 13.005995 27.455607 13.0195 27.461207 13.041016 27.478516 C 13.118086 27.540516 13.224256 27.638959 13.345703 27.755859 C 13.588598 27.989559 13.890479 28.301534 14.195312 28.615234 C 14.500146 28.928834 14.807928 29.242634 15.083984 29.490234 C 15.222012 29.613934 15.351098 29.721847 15.482422 29.810547 C 15.613746 29.899547 15.722551 30 16 30 A 0.50005 0.50005 0 0 0 16.001953 30 C 16.27678 30 16.387538 29.899247 16.521484 29.810547 C 16.65543 29.721547 16.787324 29.614834 16.929688 29.490234 C 17.214413 29.240834 17.533925 28.923922 17.849609 28.607422 C 18.165294 28.290822 18.476723 27.974781 18.728516 27.738281 C 18.854412 27.619981 18.966386 27.522084 19.046875 27.458984 C 19.073393 27.438229 19.091348 27.429283 19.111328 27.417969 C 19.132212 27.41819 19.147043 27.415987 19.175781 27.421875 C 19.273391 27.436875 19.41447 27.466813 19.578125 27.507812 C 19.905434 27.588812 20.325177 27.708725 20.746094 27.828125 C 21.16701 27.947425 21.588239 28.066278 21.951172 28.142578 C 22.132638 28.180578 22.298796 28.20775 22.457031 28.21875 C 22.615267 28.22975 22.761461 28.266 23.001953 28.125 C 23.239339 27.9866 23.283815 27.844972 23.355469 27.701172 C 23.427119 27.557372 23.489823 27.395997 23.550781 27.216797 C 23.672698 26.858497 23.789194 26.426141 23.904297 25.994141 C 24.019399 25.562141 24.132631 25.131481 24.232422 24.800781 C 24.282312 24.635381 24.329042 24.495291 24.367188 24.400391 C 24.379378 24.370035 24.389021 24.353728 24.400391 24.333984 C 24.418979 24.323297 24.432466 24.313567 24.460938 24.302734 C 24.552927 24.266734 24.691512 24.222781 24.853516 24.175781 C 25.177523 24.082781 25.599249 23.978194 26.023438 23.871094 C 26.447624 23.763994 26.872165 23.654463 27.224609 23.539062 C 27.400832 23.481063 27.558652 23.423116 27.701172 23.353516 C 27.843692 23.283516 27.986859 23.239747 28.125 22.998047 C 28.261318 22.759447 28.230544 22.615478 28.220703 22.455078 C 28.210903 22.294778 28.183264 22.125053 28.146484 21.939453 C 28.072924 21.568153 27.958118 21.134725 27.841797 20.703125 C 27.725476 20.271425 27.608247 19.842159 27.529297 19.505859 C 27.489827 19.337659 27.459723 19.193097 27.445312 19.091797 C 27.440747 19.059758 27.443116 19.040417 27.443359 19.017578 C 27.453883 18.99924 27.459623 18.984503 27.478516 18.960938 C 27.540246 18.883938 27.636957 18.775797 27.753906 18.654297 C 27.987805 18.411397 28.301428 18.109588 28.615234 17.804688 C 28.929041 17.499888 29.242707 17.192216 29.490234 16.916016 C 29.613998 16.778016 29.72192 16.649078 29.810547 16.517578 C 29.899177 16.386078 30.001265 16.276447 30 15.998047 C 29.9988 15.723247 29.899241 15.614369 29.810547 15.480469 C 29.721857 15.346469 29.612946 15.212712 29.488281 15.070312 C 29.238952 14.785613 28.923999 14.468044 28.607422 14.152344 C 28.290845 13.836644 27.972866 13.523284 27.736328 13.271484 C 27.618059 13.145584 27.520149 13.035578 27.457031 12.955078 C 27.43697 12.929335 27.429239 12.912278 27.417969 12.892578 C 27.417914 12.871148 27.415339 12.853993 27.419922 12.824219 C 27.434842 12.726219 27.465299 12.585575 27.505859 12.421875 C 27.586969 12.094575 27.708792 11.676759 27.828125 11.255859 C 27.947458 10.834959 28.064342 10.411728 28.140625 10.048828 C 28.178765 9.8673281 28.20776 9.7011688 28.21875 9.5429688 C 28.22974 9.3847687 28.263357 9.2385469 28.123047 8.9980469 C 27.984568 8.7606469 27.843 8.7161312 27.699219 8.6445312 C 27.555437 8.5725313 27.395939 8.5121719 27.216797 8.4511719 C 26.858512 8.3292719 26.426144 8.2108031 25.994141 8.0957031 C 25.562138 7.9806031 25.13152 7.8693312 24.800781 7.7695312 C 24.635412 7.7195313 24.493337 7.6725656 24.398438 7.6347656 C 24.36753 7.6223895 24.351612 7.6114065 24.332031 7.5996094 C 24.321677 7.5817164 24.313128 7.5696186 24.302734 7.5429688 C 24.266854 7.4509687 24.222484 7.3123906 24.175781 7.1503906 C 24.082371 6.8263906 23.978206 6.4027156 23.871094 5.9785156 C 23.763982 5.5543156 23.654463 5.1298437 23.539062 4.7773438 C 23.481362 4.6011437 23.423114 4.4432812 23.353516 4.3007812 C 23.283916 4.1581813 23.239764 4.0151531 22.998047 3.8769531 C 22.759427 3.7406531 22.613467 3.77175 22.453125 3.78125 C 22.292783 3.79125 22.125073 3.8175156 21.939453 3.8535156 C 21.568213 3.9275156 21.134803 4.0419031 20.703125 4.1582031 C 20.271447 4.2746031 19.842187 4.3936563 19.505859 4.4726562 C 19.337695 4.5116562 19.191109 4.5406875 19.089844 4.5546875 C 19.056374 4.5593147 19.036569 4.5589471 19.013672 4.5585938 C 18.995552 4.5479039 18.981433 4.5417876 18.958984 4.5234375 C 18.881914 4.4614375 18.775744 4.3649469 18.654297 4.2480469 C 18.411402 4.0143469 18.109521 3.7003187 17.804688 3.3867188 C 17.499854 3.0730187 17.192072 2.7612719 16.916016 2.5136719 C 16.777988 2.3899719 16.648902 2.2820594 16.517578 2.1933594 C 16.386254 2.1043594 16.277449 2.0019531 16 2.0019531 A 0.50005 0.50005 0 0 0 15.998047 2.0019531 L 15.998047 2 z M 15.996094 3.0507812 C 16.062354 3.0987813 16.144694 3.1631594 16.248047 3.2558594 C 16.485618 3.4688594 16.786215 3.7716312 17.087891 4.0820312 C 17.389566 4.3924313 17.694139 4.7100969 17.960938 4.9667969 C 18.094335 5.0951969 18.215982 5.2082344 18.333984 5.3027344 C 18.451987 5.3967344 18.533685 5.4810625 18.75 5.5390625 C 18.964006 5.5960625 19.078503 5.5658281 19.230469 5.5488281 C 19.382435 5.5268281 19.550418 5.4912656 19.734375 5.4472656 C 20.102289 5.3612656 20.535568 5.2420531 20.962891 5.1269531 C 21.390213 5.0117531 21.811362 4.8996375 22.132812 4.8359375 C 22.275529 4.8079375 22.387743 4.7931563 22.472656 4.7851562 C 22.506126 4.8591563 22.544706 4.9559906 22.587891 5.0878906 C 22.687121 5.3908906 22.794404 5.8049094 22.900391 6.2246094 C 23.006377 6.6443094 23.112244 7.0718344 23.214844 7.4277344 C 23.266144 7.6056344 23.316154 7.76545 23.371094 7.90625 C 23.426034 8.04715 23.454764 8.1598594 23.613281 8.3183594 C 23.769939 8.4750594 23.882961 8.5072531 24.025391 8.5644531 C 24.16782 8.6214531 24.330814 8.6739156 24.511719 8.7285156 C 24.873529 8.8377156 25.308681 8.9505531 25.736328 9.0644531 C 26.163975 9.1784531 26.584299 9.2947906 26.894531 9.4003906 C 27.032006 9.4473906 27.135634 9.4893906 27.212891 9.5253906 C 27.204691 9.6063906 27.190569 9.7103031 27.162109 9.8457031 C 27.096519 10.157703 26.983313 10.567875 26.865234 10.984375 C 26.747156 11.400775 26.624236 11.824094 26.535156 12.183594 C 26.490616 12.363294 26.454486 12.526281 26.431641 12.675781 C 26.408791 12.825181 26.377557 12.937797 26.435547 13.154297 C 26.492897 13.368297 26.575203 13.453419 26.669922 13.574219 C 26.764642 13.695019 26.878438 13.821184 27.007812 13.958984 C 27.266562 14.234384 27.587011 14.548828 27.900391 14.861328 C 28.21377 15.173828 28.520446 15.485922 28.736328 15.732422 C 28.832208 15.841922 28.900326 15.9302 28.949219 16 C 28.901629 16.066 28.838266 16.149153 28.746094 16.251953 C 28.533256 16.489453 28.230427 16.788244 27.919922 17.089844 C 27.609416 17.391544 27.290095 17.696091 27.033203 17.962891 C 26.904757 18.096291 26.791776 18.219891 26.697266 18.337891 C 26.602756 18.455891 26.518953 18.537406 26.460938 18.753906 C 26.403607 18.967906 26.433488 19.082375 26.455078 19.234375 C 26.476708 19.386275 26.511507 19.552328 26.554688 19.736328 C 26.641047 20.104228 26.761806 20.537544 26.876953 20.964844 C 26.9921 21.392144 27.102322 21.815219 27.166016 22.136719 C 27.194276 22.279319 27.209347 22.389709 27.216797 22.474609 C 27.142557 22.508609 27.04599 22.548597 26.914062 22.591797 C 26.611003 22.690797 26.199029 22.798297 25.779297 22.904297 C 25.359565 23.010297 24.932042 23.114197 24.576172 23.216797 C 24.398237 23.267797 24.23851 23.318147 24.097656 23.373047 C 23.956803 23.428047 23.842069 23.457034 23.683594 23.615234 C 23.526915 23.771934 23.496701 23.886897 23.439453 24.029297 C 23.382203 24.171697 23.328019 24.332772 23.273438 24.513672 C 23.164274 24.875472 23.051441 25.310581 22.9375 25.738281 C 22.823559 26.165881 22.709079 26.588237 22.603516 26.898438 C 22.556506 27.036638 22.512626 27.139497 22.476562 27.216797 C 22.395573 27.206797 22.293486 27.195016 22.158203 27.166016 C 21.846137 27.100016 21.434067 26.987241 21.017578 26.869141 C 20.601089 26.751041 20.179801 26.628162 19.820312 26.539062 C 19.640569 26.495062 19.475621 26.458047 19.326172 26.435547 C 19.176723 26.412547 19.064147 26.379547 18.847656 26.435547 C 18.63364 26.492547 18.550477 26.577175 18.429688 26.671875 C 18.308896 26.766875 18.180689 26.880366 18.042969 27.009766 C 17.767528 27.268466 17.453123 27.588944 17.140625 27.902344 C 16.828127 28.215744 16.51802 28.522381 16.271484 28.738281 C 16.161589 28.834281 16.07182 28.902272 16.001953 28.951172 C 15.935763 28.903172 15.854825 28.838394 15.751953 28.746094 C 15.514382 28.533094 15.213785 28.230422 14.912109 27.919922 C 14.610434 27.609522 14.30586 27.291856 14.039062 27.035156 C 13.905665 26.906756 13.784018 26.793719 13.666016 26.699219 C 13.548013 26.605219 13.466315 26.518838 13.25 26.460938 C 13.035994 26.403937 12.921497 26.434937 12.769531 26.460938 C 12.617566 26.482937 12.449581 26.516547 12.265625 26.560547 C 11.897712 26.646547 11.464429 26.765659 11.037109 26.880859 C 10.609789 26.995959 10.188631 27.106322 9.8671875 27.169922 C 9.7244755 27.197922 9.6122483 27.214656 9.5273438 27.222656 C 9.4939487 27.148656 9.4550828 27.051122 9.4121094 26.919922 C 9.3128804 26.616822 9.2055956 26.204956 9.0996094 25.785156 C 8.9936231 25.365456 8.8877554 24.937931 8.7851562 24.582031 C 8.7338572 24.404131 8.6838436 24.244316 8.6289062 24.103516 C 8.5739692 23.962616 8.5451731 23.849906 8.3867188 23.691406 C 8.2300513 23.534706 8.1170317 23.502512 7.9746094 23.445312 C 7.832187 23.388312 7.6691832 23.33585 7.4882812 23.28125 C 7.1264776 23.17215 6.6913165 23.059213 6.2636719 22.945312 C 5.8360273 22.831312 5.4156994 22.714975 5.1054688 22.609375 C 4.9679946 22.562375 4.8643659 22.520375 4.7871094 22.484375 C 4.7952794 22.403375 4.8094326 22.299463 4.8378906 22.164062 C 4.9034846 21.852063 5.0166873 21.441791 5.1347656 21.025391 C 5.252844 20.608891 5.3757639 20.185672 5.4648438 19.826172 C 5.5093837 19.646472 5.5455128 19.483384 5.5683594 19.333984 C 5.5912064 19.184484 5.6224541 19.071969 5.5644531 18.855469 C 5.5071051 18.641469 5.4247961 18.556347 5.3300781 18.435547 C 5.2353601 18.314747 5.1215623 18.188581 4.9921875 18.050781 C 4.7334378 17.775381 4.4129901 17.460938 4.0996094 17.148438 C 3.7862286 16.835938 3.4795579 16.523844 3.2636719 16.277344 C 3.1677889 16.167844 3.0996759 16.079666 3.0507812 16.009766 C 3.0983742 15.943766 3.1617325 15.860612 3.2539062 15.757812 C 3.4667484 15.520313 3.7695734 15.221522 4.0800781 14.919922 C 4.3905829 14.618222 4.7099054 14.313675 4.9667969 14.046875 C 5.0952426 13.913475 5.2082229 13.789975 5.3027344 13.671875 C 5.3972454 13.553875 5.4810611 13.472359 5.5390625 13.255859 C 5.5964135 13.041859 5.5665559 12.927291 5.5449219 12.775391 C 5.5232879 12.623391 5.4884945 12.457437 5.4453125 12.273438 C 5.3589485 11.905538 5.2381935 11.472222 5.1230469 11.044922 C 5.0079002 10.617622 4.8976783 10.194547 4.8339844 9.8730469 C 4.8057244 9.7304469 4.7906521 9.6200563 4.7832031 9.5351562 C 4.8574411 9.5011562 4.9540111 9.4611687 5.0859375 9.4179688 C 5.3889982 9.3189688 5.8009711 9.2114687 6.2207031 9.1054688 C 6.6404351 8.9995687 7.067958 8.8955687 7.4238281 8.7929688 C 7.6017632 8.7419688 7.7614902 8.6916187 7.9023438 8.6367188 C 8.0431971 8.5817187 8.1579311 8.5527312 8.3164062 8.3945312 C 8.4730889 8.2378312 8.5032988 8.1229687 8.5605469 7.9804688 C 8.6177949 7.8380688 8.6719809 7.6769938 8.7265625 7.4960938 C 8.8357257 7.1342938 8.9485591 6.6990844 9.0625 6.2714844 C 9.1764409 5.8437844 9.2909206 5.4215281 9.3964844 5.1113281 C 9.4434954 4.9731281 9.4873744 4.8702688 9.5234375 4.7929688 C 9.6044385 4.8029687 9.7065108 4.81475 9.8417969 4.84375 C 10.153871 4.90975 10.565931 5.022525 10.982422 5.140625 C 11.398913 5.258725 11.820196 5.3816031 12.179688 5.4707031 C 12.359433 5.5147031 12.524379 5.5517187 12.673828 5.5742188 C 12.823278 5.5972187 12.935853 5.6302188 13.152344 5.5742188 C 13.36636 5.5172187 13.449523 5.4325906 13.570312 5.3378906 C 13.691104 5.2428906 13.819311 5.1294 13.957031 5 C 14.232472 4.7413 14.546877 4.4208219 14.859375 4.1074219 C 15.171873 3.7941219 15.48198 3.4873844 15.728516 3.2714844 C 15.837578 3.1754844 15.926331 3.1074938 15.996094 3.0585938 L 15.996094 3.0507812 z M 16.195312 7.5605469 C 15.947786 7.5549032 15.698201 7.561675 15.447266 7.578125 C 11.432294 7.841225 8.1579929 10.909238 7.6328125 14.898438 C 7.1076518 18.887538 9.4770747 22.700741 13.287109 23.994141 C 17.097146 25.287441 21.29678 23.705203 23.308594 20.220703 A 0.50005 0.50005 0 1 0 22.443359 19.720703 C 20.667013 22.797403 16.971523 24.188875 13.607422 23.046875 C 10.243322 21.904875 8.1593521 18.551597 8.6230469 15.029297 C 9.086759 11.507097 11.968621 8.8085719 15.513672 8.5761719 C 19.058718 8.3437719 22.268002 10.644572 23.1875 14.076172 A 0.50005 0.50005 0 1 0 24.152344 13.816406 C 23.176046 10.172906 19.908217 7.6452017 16.195312 7.5605469 z M 20.990234 13.224609 L 20.990234 13.226562 A 0.50004991 0.50004991 0 0 0 20.716797 13.294922 L 13.183594 17.595703 L 11.462891 14.648438 A 0.50004991 0.50004991 0 1 0 10.599609 15.152344 L 12.570312 18.527344 A 0.50004991 0.50004991 0 0 0 13.25 18.708984 L 21.212891 14.162109 A 0.50004991 0.50004991 0 0 0 20.990234 13.224609 z M 23.808594 17.138672 A 0.250025 0.250025 0 0 0 23.572266 17.347656 C 23.518316 17.650956 23.445391 17.951394 23.355469 18.246094 A 0.250025 0.250025 0 1 0 23.833984 18.390625 C 23.929754 18.076725 24.006999 17.758647 24.064453 17.435547 A 0.250025 0.250025 0 0 0 23.808594 17.138672 z " color="#000" enable-background="accumulate" font-family="sans-serif" font-weight="400" overflow="visible" style="line-height:normal;text-indent:0;text-align:start;text-decoration-line:none;text-decoration-style:solid;text-decoration-color:#000;text-transform:none;block-progression:tb;white-space:normal;isolation:auto;mix-blend-mode:normal;solid-color:#000;solid-opacity:1" fill="#e9b500" class="color000000 svgShape"></path></svg>